#!OML:ASF H:\Terrain\Patient Classification 1\PLAYGROUND\JustinFriday\JustinFriday.ASF
:FULLY-SPECIFIED
:DEGREES
2825
root 13.727 20.2527 34.4063 -183.227 6.76162 -176.454
lowerback 15.8363 -5.83577 1.04759
upperback 1.36114 -6.6179 5.35102
thorax -6.85343 -2.96557 6.53518
lowerneck 11.1021 9.43154 -44.1247
upperneck 16.8929 9.62146 15.2787
head 1.25979 3.80546 11.3987
rclavicle 5.36719e-014 -6.52014e-014
rhumerus 120.375 13.4947 -75.986
rradius 36.7571
rwrist -152.88
rhand -5.99275 257.567
rfingers 7.12502
rthumb 19.8393 433.426
lclavicle 5.36719e-014 -6.52014e-014
lhumerus 72.5119 41.6956 18.5634
lradius 27.3343
lwrist -23.5911
lhand -42.0061 29.5168
lfingers 7.12502
lthumb -14.901 58.9609
rfemur 13.1353 -7.26139 20.9835
rtibia 35.561
rfoot -3.54686 -31.8226
rtoes 41.2038
lfemur 13.4284 3.63709 -12.7568
ltibia 30.1025
lfoot -173.628 173.43
ltoes -7.07346
2826
root 13.7106 20.2687 34.5016 -183.154 6.64643 -176.431
lowerback 15.8075 -5.85922 1.28486
upperback 1.4499 -6.60103 5.33466
thorax -6.77359 -2.96165 6.37049
lowerneck 12.4241 10.0022 -45.0034
upperneck 15.3406 9.30432 16.4788
head 0.91097 3.68388 11.5399
rclavicle 4.27387e-014 -1.01778e-013
rhumerus 120.343 13.3266 -75.6956
rradius 36.88
rwrist -153.075
rhand -6.04263 257.159
rfingers 7.12502
rthumb 19.7914 433.829
lclavicle 4.27387e-014 -1.01778e-013
lhumerus 72.8042 41.6286 19.0627
lradius 27.2672
lwrist -24.1049
lhand -41.899 30.0762
lfingers 7.12502
lthumb -14.7979 59.5278
rfemur 13.2934 -7.38747 20.859
rtibia 35.5322
rfoot -6.32289 -30.7948
rtoes 41.62
lfemur 13.7066 3.29469 -13.0953
ltibia 30.1246
lfoot -175.796 173.505
ltoes -8.91985
2827
root 13.7312 20.2863 34.6067 -183.208 6.60798 -176.421
lowerback 16.0876 -5.8489 1.06068
upperback 1.55948 -6.6102 5.31718
thorax -6.78366 -2.95662 6.50222
lowerneck 11.0028 9.52744 -43.2796
upperneck 16.9695 10.0412 14.2824
head 1.31329 4.057 10.8784
rclavicle 2.04748e-014 3.33958e-014
rhumerus 120.345 13.2581 -75.6537
rradius 37.0231
rwrist -153.063
rhand -6.45284 256.634
rfingers 7.12502
rthumb 19.397 434.313
lclavicle 2.04748e-014 3.33958e-014
lhumerus 72.6052 41.533 18.7687
lradius 27.2551
lwrist -24.0304
lhand -41.9906 30.6002
lfingers 7.12502
lthumb -14.8861 60.0454
rfemur 13.5267 -6.97553 21.154
rtibia 35.4484
rfoot -10.4825 -27.1136
rtoes 41.1048
lfemur 14.0887 3.34829 -13.0495
ltibia 30.143
lfoot -176.535 173.09
ltoes -10.9906
2828
root 13.7326 20.3318 34.694 -183.085 6.47658 -176.408
lowerback 15.9592 -5.91822 1.15224
upperback 1.73522 -6.69512 5.24632
thorax -6.53553 -3.0062 6.3602
lowerneck 11.9286 10.182 -43.1854
upperneck 15.1708 10.2592 14.07
head 0.570566 4.27234 10.6035
rclavicle -4.27387e-014 -3.65764e-014
rhumerus 120.536 13.0904 -75.5093
rradius 37.1718
rwrist -152.838
rhand -7.31247 256.182
rfingers 7.12502
rthumb 18.5703 434.684
lclavicle -4.27387e-014 -3.65764e-014
lhumerus 72.6235 41.6688 18.6438
lradius 27.2457
lwrist -24.0626
lhand -41.967 30.9854
lfingers 7.12502
lthumb -14.8634 60.4323
rfemur 13.6233 -6.94494 21.1718
rtibia 35.358
rfoot -11.3111 -26.5167
rtoes 39.9313
lfemur 14.1483 2.7513 -13.3706
ltibia 30.1525
lfoot -177.125 173.586
ltoes -10.6055
2829
root 13.7395 20.3801 34.7695 -183.219 6.46147 -176.391
lowerback 16.1725 -5.93562 1.11415
upperback 1.9133 -6.70875 5.19278
thorax -6.461 -3.00831 6.33623
lowerneck 11.2659 9.6 -43.4138
upperneck 15.9155 9.7927 14.4313
head 0.970023 3.97171 10.9007
rclavicle 5.725e-014 -6.52014e-014
rhumerus 120.621 12.9722 -75.3355
rradius 37.2547
rwrist -152.714
rhand -7.94972 255.891
rfingers 7.12502
rthumb 17.9572 434.918
lclavicle 5.725e-014 -6.52014e-014
lhumerus 72.7144 41.7848 18.6793
lradius 27.2423
lwrist -24.4735
lhand -41.6737 31.3595
lfingers 7.12502
lthumb -14.5808 60.827
rfemur 14.0454 -6.79025 21.1996
rtibia 35.2146
rfoot -11.6195 -26.4052
rtoes 39.9879
lfemur 14.5578 2.46737 -13.5155
ltibia 30.1372
lfoot -177.533 174.229
ltoes -9.99173
2830
root 13.7135 20.4094 34.8495 -183.177 6.34724 -176.366
lowerback 16.5691 -6.04091 1.49844
upperback 1.74747 -6.75987 5.12449
thorax -6.90646 -3.02957 6.12412
lowerneck 10.8688 9.19385 -43.7031
upperneck 16.5283 9.43129 14.7983
head 1.27064 3.73458 11.1753
rclavicle 1.66979e-014 -1.74931e-014
rhumerus 120.406 12.8976 -75.0867
rradius 37.2036
rwrist -153.001
rhand -8.07964 255.697
rfingers 7.12502
rthumb 17.8322 435.1
lclavicle 1.66979e-014 -1.74931e-014
lhumerus 72.4736 41.4978 18.549
lradius 27.239
lwrist -24.7037
lhand -41.4883 31.7573
lfingers 7.12502
lthumb -14.4021 61.2376
rfemur 14.2513 -7.13708 20.8926
rtibia 35.0664
rfoot -10.0613 -26.3355
rtoes 38.3613
lfemur 14.8045 1.98283 -13.9126
ltibia 30.2076
lfoot -178.206 175.14
ltoes -9.22783
2831
root 13.7466 20.4376 34.9518 -183.29 6.5019 -176.367
lowerback 17.5407 -5.8406 0.83354
upperback 1.56638 -6.54754 5.29972
thorax -7.55273 -2.88017 6.77452
lowerneck 11.6745 9.84258 -43.4883
upperneck 15.6001 9.89048 14.4686
head 0.786709 4.04006 10.8746
rclavicle -8.40859e-014 1.98785e-014
rhumerus 120.162 12.7247 -74.6941
rradius 37.1959
rwrist -153.384
rhand -8.18743 255.507
rfingers 7.12502
rthumb 17.7285 435.281
lclavicle -8.40859e-014 1.98785e-014
lhumerus 72.2038 41.1403 18.4495
lradius 27.2133
lwrist -24.6842
lhand -41.4394 32.1814
lfingers 7.12502
lthumb -14.3551 61.6651
rfemur 14.4767 -6.03236 21.5331
rtibia 34.9834
rfoot -11.831 -26.1878
rtoes 39.1724
lfemur 15.1225 2.26811 -13.7278
ltibia 30.2207
lfoot -177.909 175.262
ltoes -7.03972
2832
root 13.7466 20.4384 35.0296 -183.351 6.27423 -176.349
lowerback 17.6925 -5.97133 0.912753
upperback 1.62997 -6.70083 5.22059
thorax -7.57001 -2.95491 6.6912
lowerneck 11.2719 9.57064 -43.5718
upperneck 15.9635 9.70375 14.6742
head 0.977967 3.91395 11.0243
rclavicle 9.36276e-014 -1.19271e-014
rhumerus 120.073 12.7791 -74.7261
rradius 37.3029
rwrist -153.402
rhand -8.41961 255.346
rfingers 7.12502
rthumb 17.5051 435.422
lclavicle 9.36276e-014 -1.19271e-014
lhumerus 71.7878 41.1005 17.7846
lradius 27.2383
lwrist -24.4877
lhand -41.3089 32.6248
lfingers 7.12502
lthumb -14.2293 62.1174
rfemur 14.818 -5.76952 21.6874
rtibia 34.9272
rfoot -13.3606 -25.5115
rtoes 38.8539
lfemur 15.3779 2.49145 -13.4978
ltibia 30.2646
lfoot -177.852 174.96
ltoes -5.23162
2833
root 13.7415 20.4567 35.1039 -183.396 6.1956 -176.332
lowerback 17.5993 -6.18913 1.25832
upperback 1.88784 -6.95358 4.92813
thorax -7.29421 -3.09952 6.20221
lowerneck 10.7449 9.32124 -43.6132
upperneck 16.1139 9.52796 15.0082
head 1.09429 3.8006 11.205
rclavicle -1.06549e-013 -1.74931e-014
rhumerus 120.258 12.9717 -75.2003
rradius 37.3907
rwrist -153.274
rhand -8.62218 255.213
rfingers 7.12502
rthumb 17.3101 435.538
lclavicle -1.06549e-013 -1.74931e-014
lhumerus 71.1998 41.3691 16.5552
lradius 27.3752
lwrist -24.0952
lhand -41.1738 32.9906
lfingers 7.12502
lthumb -14.0991 62.4923
rfemur 15.066 -5.75554 21.6341
rtibia 34.8438
rfoot -12.5241 -25.581
rtoes 37.3504
lfemur 15.5915 2.62226 -13.4791
ltibia 30.3411
lfoot -177.88 174.893
ltoes -7.29892
2834
root 13.7452 20.4843 35.172 -183.401 6.1347 -176.315
lowerback 17.3244 -6.40741 1.54979
upperback 2.28691 -7.22748 4.59971
thorax -6.76989 -3.2559 5.67575
lowerneck 10.3961 9.30066 -43.5865
upperneck 15.7119 9.50979 15.2641
head 0.974632 3.80216 11.2851
rclavicle -1.67377e-013 5.725e-014
rhumerus 120.695 13.0279 -75.6895
rradius 37.4635
rwrist -153.223
rhand -8.82721 255.06
rfingers 7.12502
rthumb 17.1128 435.673
lclavicle -1.67377e-013 5.725e-014
lhumerus 70.8109 41.8463 15.4954
lradius 27.5687
lwrist -23.6838
lhand -41.1649 33.3006
lfingers 7.12502
lthumb -14.0906 62.8029
rfemur 15.2465 -5.42543 21.8369
rtibia 34.7525
rfoot -12.6275 -25.5952
rtoes 37.4662
lfemur 15.742 2.63979 -13.5234
ltibia 30.438
lfoot -176.733 174.408
ltoes -2.97384
2835
root 13.7539 20.4948 35.2502 -183.385 6.04814 -176.302
lowerback 18.1367 -6.1503 1.06397
upperback 1.974 -6.89006 4.97931
thorax -7.46752 -3.04645 6.41014
lowerneck 11.0531 9.37263 -43.8441
upperneck 15.334 9.31296 15.0822
head 0.843251 3.72084 11.229
rclavicle -3.10104e-014 8.66701e-014
rhumerus 120.385 12.7763 -74.911
rradius 37.5044
rwrist -153.423
rhand -8.99299 254.879
rfingers 7.12502
rthumb 16.9532 435.84
lclavicle -3.10104e-014 8.66701e-014
lhumerus 71.2578 41.4864 16.6864
lradius 27.5009
lwrist -23.9472
lhand -41.0641 33.5134
lfingers 7.12502
lthumb -13.9934 63.0224
rfemur 15.4268 -4.89383 22.1822
rtibia 34.6175
rfoot -13.9212 -25.3786
rtoes 37.5603
lfemur 15.8448 2.70338 -13.5024
ltibia 30.5609
lfoot -177.273 175.07
ltoes -9.29102
